<svg id="Layer_1" data-name="Layer 1" xmlns="http://www.w3.org/2000/svg" xmlns:xlink="http://www.w3.org/1999/xlink" viewBox="0 0 496.74 533.9"><defs><style>.cls-1{fill:none;}.cls-2{clip-path:url(#clip-path);}.cls-3{fill:#141414;}.cls-4{fill:#6f665e;}.cls-5{fill:#bdc6ca;}.cls-6{fill:#6a635c;}.cls-7{fill:#232322;}.cls-8{fill:#2b2b2c;}.cls-9{fill:#343433;}.cls-10{fill:#96a2a7;}.cls-11{fill:#5b554e;}.cls-12{fill:#1a1b1c;}.cls-13{fill:#474442;}.cls-14{fill:#4f4b46;}.cls-15{fill:#d3dddf;}.cls-16{fill:#ccd6d8;}.cls-17{fill:#ededed;}</style><clipPath id="clip-path" transform="translate(37.9 -92.25)"><circle class="cls-1" cx="200.82" cy="429.95" r="177.3"/></clipPath></defs><title>homepage-hero-final-2</title><g class="cls-2"><image width="932" height="738" transform="translate(0 159) scale(0.51)" xlink:href="F:%5CUsers%5CEdwards%5CDownloads%5Crefrompatwa%5Ckeys.jpg"/></g><path class="cls-3" d="M329.53,263.19c-9.27,12.75-21.56,14.55-35.77,10.23-13.32-4-23.54-13.63-35.37-20.29-5.58-3.14-7.22-12.95-11.19-19.4A164.32,164.32,0,0,1,234,208.1a91.51,91.51,0,0,1-6.51-39.34c1.15-20,9.34-28.84,29.11-30.95A72.18,72.18,0,0,1,283.86,149c11.53,7.76,20,18.43,28.74,29a214.35,214.35,0,0,1,18.65,39.39l2.44,20.35c-.5,3-1.91,6.09,1.1,8.63l.34,2.13-1.81,2.2Zm-17.16-35.6c2.9.09,4.53-1.09,4.2-4.23l0,0,2.41.22c4.59.34,6.58-1.79,6-6.36-4.61-15.42-10.59-30.08-22.65-41.41-1.61-8.39-7.06-11.93-15.18-12.11-6-3.8-10.19-10-16.86-13-8-3.6-16.22-5-22.93,1.57-6.38,6.24-11.17,13.82-7.14,23.63.93,9.25,1.08,18.68,6.27,26.93,4.5,16.1,15,27.37,28.86,35.89l.12,3.45a20.59,20.59,0,0,0,8.25,8.32c8.89,8.21,18.77,12.69,31,8.3,4.56-.64,8.26-3.05,7.74-7.78-.62-5.66-5.85-4.51-9.8-4.65-2.75-.1-5.88.15-7.12-2.82s2.14-3.76,3.71-5.25c2.92-2.74,4.47-5.34.22-8.19a3.49,3.49,0,0,1-.47-1.37Z" transform="translate(37.9 -92.25)"/><path class="cls-4" d="M424.18,211.15c5.31.77,7.07,4.87,8.46,9.22.94,2.94,1,6.39,2.56,8.87,7.58,11.76,7.34,21.89-5.22,29.94-4.22,2.72-2.24,6.09-.92,9a60.27,60.27,0,0,1,5.6,27.08c-.43,10.86,6.77,19.25,8.39,29.36-2.56,3.86-4.65,1.3-6.37-.7-2.2-2.54-3.76-5.82-8-5-.48-4.07.94-9-4.66-10.83-1.13-4.59-5.77-6.3-8.07-9.94l-2.13-10.35c6.57-1.82,5.33-8.81,8.41-13,2.25-3.06,3.7-7.74.61-10.32-2.36-2-6.36.12-9,2.55-2.29.08-4.76-.41-6.25,2.08v0c-5.56,2.45-3.95,10.79-10.3,12.58l-2.11-2.15c-2.32-6.77,6-8.82,6.36-14.38l.07-.07C406,263,410.44,261,410,254.94c7-6.71,19.08-7.56,22.05-19-3.34-6,.06-16.85-11.94-16.55-.08-.62-.18-1.25-.28-1.87C421.12,215.29,424.57,214.54,424.18,211.15Z" transform="translate(37.9 -92.25)"/><path class="cls-4" d="M389,105.58c17.51,18.57,20,40.41,13.86,64.1-4.68-2-9.5-5.9-14-5.55-10.39.81-14.49-4.23-16.34-13.1,0-1.4-.07-2.8-.1-4.2a50.59,50.59,0,0,1,2-16.55C383,124.19,390.54,117.58,389,105.58Z" transform="translate(37.9 -92.25)"/><path class="cls-5" d="M312.6,178c-8.7-10.52-17.21-21.19-28.74-29a72.18,72.18,0,0,0-27.28-11.2c9.52-12,21.58-5.58,32.79-4.27,3.51.4,6.48,3.68,10.49,2.89l24.38,23.25c1.41,4.55,6.4,7,7.07,12C323.58,169.3,315.89,167,312.6,178Z" transform="translate(37.9 -92.25)"/><path class="cls-6" d="M372.57,151c1.85,8.87,5.95,13.91,16.34,13.1,4.49-.35,9.31,3.57,14,5.55-2.55,7.3-4.38,15-12.14,19L387,180.06c-3.72-7.15-10.81-5.17-16.79-6.25-19.17-3.46-27.16-9.27-24.69-24.56.57-3.51-.93-7.35-1.48-11,9.86-2.93,6.6-11.68,8.09-18.33a5.75,5.75,0,0,1,1.64-.27c5.78,7.17-1.13,14.32-.16,21.68.74,5.67,2.41,9.87,7,12.8C365.49,157.2,368.86,153.19,372.57,151Z" transform="translate(37.9 -92.25)"/><path class="cls-7" d="M370.42,345.87c4.43,5.56,4.91,11.67,2.54,18.18-9.54,5.38-20.6,8.34-27.71,17.57-6.06,2.27-12.1,1.37-18.13-.13-1.41-2-3.16-2.4-5.26-1.11a1.17,1.17,0,0,1-1.23-.86c2-3.54,5.54-2.29,8.55-2.64,3.5,3.08,6.5,3.31,8.62-1.51,8.45.59,5.72-7,7.91-10.93l-.08.06c7.41.56,13.91,0,12.41-10.25-.34-11.53-10.86-7.07-16.37-10.47a1.77,1.77,0,0,1,.64-1.86c7.9-3.49.95-12,5.58-16.6,2.36,0,4.82-.82,6.94.92s.85,7.37,5.68,5.28c3.51-1.52,3.74-5.31,3.86-8.93.09-2.68,1.06-5.33,1.64-8l.41.22c1.29,1.34,2.59,2.68,3.88,4-1.2,5.64-2.79,11.25-3.46,17C366.41,339.41,364.29,344.32,370.42,345.87Z" transform="translate(37.9 -92.25)"/><path class="cls-8" d="M310.64,115.84c17.53-23.14,48.25-30.41,70.16-16.61,0,1.38,0,2.76-.05,4.14-8.35,8.4-17.87,1.2-26.15.57-17.38-1.33-32.2,8.31-33.73,26-.26,3,.88,6.33-2.1,8.65-8.2-1.26-6.6-7.54-5.63-12.51C314,121.92,315.63,118.29,310.64,115.84Z" transform="translate(37.9 -92.25)"/><path class="cls-9" d="M424.18,211.15c.39,3.39-3.06,4.14-4.36,6.36-6.09.24-13.32-2.63-16.36,6-3.54.35-6.34,2.21-5.95,5.81,1.78,16.48-14.82,20.42-20.93,31.45-.21-2.1.76-5.59-2.54-5.16s-5.4,3.4-5.52,7.13l-9.65-2.82,1.41-3.54c0-1.28,0-2.56-.08-3.84,10,1.93,16.62-4.31,19.52-11.7,3.26-8.28,8.2-14.78,13.5-21.4,12.1-6.07,1.8-12.05-.08-18.07C404.07,202.76,413.44,209.13,424.18,211.15Z" transform="translate(37.9 -92.25)"/><path class="cls-7" d="M310.64,115.84c5,2.45,3.32,6.08,2.5,10.26-1,5-2.57,11.25,5.63,12.51,4.42,6.09,9,12,16.51,14.54.15,2.56,1.41,4.07,4,4.3,2.19,8.66,9.52,14.49,12.51,22.72,1,10.6,7.7,15.77,18.7,14.43-4.42,7.36-11.9,5.55-18.55,6.24-2.69-7-5.82-13.61-7.07-21.24-1.49-9.16-13.07-19.16-20.65-19.92l-24.38-23.25C302.39,129,304.84,121.54,310.64,115.84Z" transform="translate(37.9 -92.25)"/><path class="cls-3" d="M352,200.84c6.65-.69,14.13,1.12,18.55-6.24,3.25-.16,6.48.05,9.37-2.18,4.11-3.18,4.86.24,5.67,3.25l-.27,2.37c-.1,1.61-.2,3.22-.31,4.83l-.5.78.45-.84h4.14c.1,5.6,3.13,10.84,2.06,16.59l-6.18,0-34.89,0c-.47-2.32-1.34-4.72,1.31-6.41,3.25-.08,6.32-.5,8.17-4.56l-8,.84-.13.18c-.18-1.93-.37-3.86-.55-5.8V204Z" transform="translate(37.9 -92.25)"/><path class="cls-6" d="M428.69,318.92c4.23-.78,5.79,2.5,8,5,1.72,2,3.81,4.56,6.37.7,18.93,7,15.92,22.88,15.12,37.85l-.52,0-.51-.16-7.93-.12c.81-7.77-1.14-14.68-6.39-20.57q.17-3,.31-5.93l.74-1.29-1.26.77c-6-2.91-13-2.88-18.59-6.75C424.37,324.71,426.87,322,428.69,318.92Z" transform="translate(37.9 -92.25)"/><path class="cls-9" d="M329.18,376.88c-3,.35-6.52-.9-8.55,2.64-9-.4-7.15-7.38-7.77-12.86,3.65-8.93,8.19-16.5,19.58-16.69,2.66-.05,5.27-2.87,7.9-4.42,4.19,1.47,2.27,4.39,1.35,6.73-1.59,4-1.95,7.87.06,11.79-3.31.64-6.37,1.74-8.55,4.52C327.78,369.36,329.5,373.62,329.18,376.88Z" transform="translate(37.9 -92.25)"/><path class="cls-9" d="M335.28,153.15c-7.49-2.58-12.09-8.45-16.51-14.54,3-2.32,1.84-5.66,2.1-8.65,1.53-17.71,16.35-27.35,33.73-26,8.28.63,17.8,7.83,26.15-.57H385l3.11,1.32c-3,.25-4.8,1.84-5.16,4.91-4.23,1.28-6.29,8.7-12.13,5-6.32-4-13.59-4-20.42-5.62-12.51-2.94-16.72,7.84-22.55,15.35-5,6.45-3.92,12.61,2,18.15A16.16,16.16,0,0,1,335.28,153.15Z" transform="translate(37.9 -92.25)"/><path class="cls-9" d="M385.55,195.67c-.81-3-1.56-6.43-5.67-3.25-2.89,2.23-6.12,2-9.37,2.18-11,1.34-17.69-3.83-18.7-14.44l35.19-.1,3.76,8.59C390.52,192.12,387.94,193.82,385.55,195.67Z" transform="translate(37.9 -92.25)"/><path class="cls-10" d="M360.28,256.37l-1.41,3.54L356.06,263l-3.84.41c-1.55-3.85-3.52-7.36-8.09-8.07a2.1,2.1,0,0,0-2.38,2.51c1.23,4.13,3.88,7,8.43,7.48l.54,3.43c-1.75,2.22-3.51,4.43-5.26,6.64-4.48-5.15-6.71-13.26-15.93-12.18q1.89-6.27,3.79-12.53c1.22-.22,2-.82,1.81-2.2-.12-.71-.23-1.42-.34-2.13l6.67.11C347.76,249.7,353.06,254.87,360.28,256.37Z" transform="translate(37.9 -92.25)"/><path class="cls-11" d="M347.89,325.32c-4.63,4.59,2.32,13.11-5.58,16.6.49-10.74-5.49-20.62-4.2-31.47,9-1.09,18.06-1.83,26.36-6l2-.07c0,3.46,0,6.93,0,10.4l-.41-.22C359.06,316.61,346.52,309.14,347.89,325.32Z" transform="translate(37.9 -92.25)"/><path class="cls-3" d="M347.64,291.56l1.56-2.26c5.86.58,12.66-6.68,15-16l6.24-2.08c.12.77.25,1.54.38,2.31l-.22,5.94c1.25,3.74,2.87,1.69,4.46.3,4.32.17,3.39,3.2,3.15,5.84-4.64,4-9.27,7.92-9.81,14.65l.07-.07-4,.2-2.17-2.14c.58-5,6.7-7.76,6-14-5.77,2.56-6.8,8.3-10.44,11.73C354.83,293.52,348.54,298.76,347.64,291.56Z" transform="translate(37.9 -92.25)"/><path class="cls-8" d="M347.64,291.56c.9,7.2,7.19,2,10.16,4.42.92,1.89,2.6,2.29,4.47,2.3l2.17,2.14,0,4.06c-8.3,4.14-17.37,4.88-26.36,6C338.14,302.56,342.54,296.88,347.64,291.56Z" transform="translate(37.9 -92.25)"/><path class="cls-3" d="M345.46,275.37c1.75-2.21,3.51-4.42,5.26-6.64,3-.68,6.22,4.2,8.71.27,1.71-2.71-1-4.7-3.37-6l2.81-3.06,9.65,2.82,4,.18c-1.7,5.21-8.12,5.67-10.36,10.34-3.58,3-4.7,9.09-10.93,8.82Z" transform="translate(37.9 -92.25)"/><path class="cls-12" d="M341.75,364.07c-2-3.92-1.65-7.78-.06-11.79.92-2.34,2.84-5.26-1.35-6.73l1.33-1.77c5.51,3.4,16-1.06,16.37,10.47-4.53,2.94-12.45,1.75-12.41,10.25l.08-.06Z" transform="translate(37.9 -92.25)"/><path class="cls-11" d="M382.93,109.59c.36-3.07,2.12-4.66,5.16-4.91.63-.06,1,.24,1,.9,1.5,12-6.09,18.61-14.55,24.7-4.72-6.69,2.07-8.62,5.19-11.57C382.55,116,387.16,114.6,382.93,109.59Z" transform="translate(37.9 -92.25)"/><path class="cls-12" d="M391.12,219.39c1.07-5.75-2-11-2.06-16.59,0-.71,0-1.43,0-2.14l4,.7c1.88,6,12.18,12,.08,18.07Z" transform="translate(37.9 -92.25)"/><path class="cls-11" d="M351.27,282.07c6.23.27,7.35-5.81,10.93-8.82l1,.09h1c-2.31,9.29-9.11,16.55-15,16C349.71,286.84,353,285.17,351.27,282.07Z" transform="translate(37.9 -92.25)"/><path class="cls-9" d="M389.1,200.66c0,.71,0,1.43,0,2.14h-4.14l.05.06c.11-1.61.21-3.22.31-4.83Z" transform="translate(37.9 -92.25)"/><path class="cls-13" d="M385,103.36h-4.23c0-1.38,0-2.76.05-4.14C383.56,99.22,384.69,100.87,385,103.36Z" transform="translate(37.9 -92.25)"/><path class="cls-3" d="M366.42,314.81c0-3.47,0-6.94,0-10.4,1.95-.78,1.93-2.51,2-4.19l-.07.07c6.43-2.84,9.13-9,12.74-14.36,4.7,6.29,9.43,5.15,14.26.13.41-.42,1.27-.4,1.93-.59l6.31,4.26c-.06,3.11,0,6.52-3.5,7.82-8.62,3.21-3.36,6.59-.43,10.25,5,6.21,12.17,3.41,18.31,4.84l-2.11,4.09a72.64,72.64,0,0,0-12.26,14.87c-8.38-3.63-13.6-11.16-20.4-16.72-3.19-2.61-5.76-5.35-8.85-.21-2.77,0-3.66,1.85-4.07,4.17C369,317.49,367.71,316.15,366.42,314.81Z" transform="translate(37.9 -92.25)"/><path class="cls-7" d="M453.56,372.91c-14.95,8.59-29.28,2.89-43.54-2.11-3.82-1.34-2.94-5.16-2.29-8.07,1.37-6.1,3.18-12.1,11.07-12.55,1.84,2.84.29,10.2,6.78,6.84,4.37-2.26,9.95-2.62,13.15-7.08,1.61.08,3.14.34,4,2a6.61,6.61,0,0,0-4.11,6.34l0-.05c-5.94,1.1-11.83,3.76-10.61,10.39.75,4.12,6.09,6.17,10.66,2.14h4.08C445.85,374.1,450,372.17,453.56,372.91Z" transform="translate(37.9 -92.25)"/><path class="cls-3" d="M438.73,349.94c-3.2,4.46-8.78,4.82-13.15,7.08-6.49,3.36-4.94-4-6.78-6.84l.14-.11c2.35,2.07,4.32,2,5.08-1.32.56-2.44,4.12-5.69-1.3-7.12-.22-.63-.43-1.27-.63-1.91,7.26-9.39,12.62-1.17,18.52,2Z" transform="translate(37.9 -92.25)"/><path class="cls-5" d="M403.62,331.6a72.64,72.64,0,0,1,12.26-14.87c-.21,4.81-.52,9.64,4.25,12.77-.54,2.47-4.14,2.85-3.93,5.82C411.59,335.51,407.05,335.45,403.62,331.6Z" transform="translate(37.9 -92.25)"/><path class="cls-6" d="M345.25,381.62c7.11-9.23,18.17-12.19,27.71-17.57.24.62.82,1.68.66,1.81C365.05,372.71,357.1,380.72,345.25,381.62Z" transform="translate(37.9 -92.25)"/><path class="cls-13" d="M453.56,372.91c-3.59-.74-7.71,1.19-10.78-2.17-.79-7.7-.79-7.7,6.43-8.47l7.93.12C456.33,366,461.4,371.67,453.56,372.91Z" transform="translate(37.9 -92.25)"/><path class="cls-8" d="M416.2,335.32c-.21-3,3.39-3.35,3.93-5.82l3.89-1c5.61,3.87,12.63,3.84,18.59,6.75l.53.53c-.11,2-.21,4-.32,5.92l-2.21,0c-5.9-3.18-11.26-11.4-18.52-2Z" transform="translate(37.9 -92.25)"/><path class="cls-14" d="M370.3,318.84c.41-2.32,1.3-4.17,4.07-4.17,1.06,6.75-1.63,12.83-3.54,19a23.22,23.22,0,0,0-.41,12.18c-6.13-1.55-4-6.46-3.58-10.07C367.51,330.09,369.1,324.48,370.3,318.84Z" transform="translate(37.9 -92.25)"/><path class="cls-8" d="M422.72,341.63c5.42,1.43,1.86,4.68,1.3,7.12-.76,3.29-2.73,3.39-5.08,1.32A15.92,15.92,0,0,0,422.72,341.63Z" transform="translate(37.9 -92.25)"/><path class="cls-6" d="M321.86,380.38c2.1-1.29,3.85-.88,5.26,1.11C324.94,383.16,323.3,382.21,321.86,380.38Z" transform="translate(37.9 -92.25)"/><path class="cls-15" d="M275.31,238.74C261.43,230.22,251,219,246.45,202.85c3.11-2.15,1.75-5.43,2.11-8.28,5.1-.83,6.56-5.71,9.27-8.95,2.85-3.39,5.06-4.32,8.36-1.25,14.88,13.84,24.31,31,30.11,50.27C289.8,238.59,282.35,237.62,275.31,238.74Z" transform="translate(37.9 -92.25)"/><path class="cls-16" d="M296.3,234.64c-5.8-19.31-15.23-36.43-30.11-50.27-3.3-3.07-5.51-2.14-8.36,1.25-2.71,3.24-4.17,8.12-9.27,8.95.41-5.43-1.4-11.12,1.21-16.26,3.15-6.21,8.61-10.89,15.38-10.29,9.16.8,14.53,7.65,18.58,15.75,5.2,10.39,8.39,22.15,18.53,29.45h0c-.68,6.44,4.17,10.49,6.71,15.54a3.5,3.5,0,0,0,.47,1.36c-1.86.16-4.09-.69-5.06,1.87C301,230.85,299.56,235.49,296.3,234.64Z" transform="translate(37.9 -92.25)"/><path class="cls-5" d="M302.26,213.22c-10.14-7.3-13.33-19.06-18.53-29.45-4.05-8.1-9.42-15-18.58-15.75-6.77-.6-12.23,4.08-15.38,10.29-2.61,5.14-.8,10.83-1.21,16.26-.36,2.85,1,6.13-2.11,8.28-5.19-8.25-5.34-17.68-6.27-26.93,3.46-1.33,3.55-4.44,4.41-7.46,3-10.63,10.24-14.19,21.12-12.19,9.05,1.67,14.36,7.44,18.52,14.66C291.92,184.28,296.35,199.08,302.26,213.22Z" transform="translate(37.9 -92.25)"/><path class="cls-17" d="M312.6,178c3.29-10.92,11-8.66,18.71-6.29h0c.26,6.2,1.66,11.78,8,14.7l2.22,4.07c-3,2.95-.83,3.69,1.81,4.2q1.32,4.1,2.62,8.17c-3.66,4.35,2.43,10.3-2.35,14.47-2.53,1.47-5.1,2.8-8.17,2.51-.78-1.84-2.32-2.37-4.14-2.43A214.35,214.35,0,0,0,312.6,178Z" transform="translate(37.9 -92.25)"/><path class="cls-10" d="M302.26,213.22c-5.91-14.14-10.34-28.94-18-42.29-4.16-7.22-9.47-13-18.52-14.66-10.88-2-18.11,1.56-21.12,12.19-.86,3-1,6.13-4.41,7.46-4-9.81.76-17.39,7.14-23.63,6.71-6.56,14.95-5.17,22.93-1.57,6.67,3,10.83,9.22,16.86,13l2.64,4.24c.1,1.32.47,2.28,2.09,1.66l2.89,6.1c0,1.29.11,2.58.16,3.87a38.9,38.9,0,0,0,5.36,18.19c3.63,6.44,5.8,14.77,14.17,17.63.7,2.66,1.4,5.31,2.11,8l0,0-3.7.27c-3.76-3.24-5.71-8.34-10.61-10.41Z" transform="translate(37.9 -92.25)"/><path class="cls-9" d="M294.89,179.61c-.05-1.29-.11-2.58-.17-3.87l7.57.11c12.06,11.33,18,26,22.66,41.41-3.86.37-6,2.35-6,6.36l-2.41-.22c-.71-2.66-1.41-5.31-2.11-8C309.65,202.54,302.65,190.86,294.89,179.61Z" transform="translate(37.9 -92.25)"/><path class="cls-12" d="M304.38,232c1-2.56,3.2-1.71,5.06-1.87,4.25,2.85,2.7,5.45-.22,8.19-1.57,1.49-5,2.14-3.71,5.25s4.37,2.72,7.12,2.82c3.95.14,9.18-1,9.8,4.65.52,4.73-3.18,7.14-7.74,7.78-.41-2.88,1.07-7.6-3-7.73-9.32-.29-18.64-2.24-28-.57a20.59,20.59,0,0,1-8.25-8.32C286.16,241.88,298.18,245.25,304.38,232Z" transform="translate(37.9 -92.25)"/><path class="cls-8" d="M283.68,250.51c9.36-1.67,18.68.28,28,.57,4.08.13,2.6,4.85,3,7.73C302.45,263.2,292.57,258.72,283.68,250.51Z" transform="translate(37.9 -92.25)"/><path class="cls-16" d="M331.25,217.35c1.82.06,3.36.59,4.14,2.43.19,3-1,6.18,1.67,9.6,3.67-1.59,7.3-4.9,12-3.51,0,1.82-.07,3.64-.1,5.47-5.2,1.85-7.8,10-15.26,6.36Z" transform="translate(37.9 -92.25)"/><path class="cls-8" d="M304.38,232c-6.2,13.26-18.22,9.89-28.95,10.2l-.12-3.45c7-1.12,14.49-.15,21-4.1C299.56,235.49,301,230.85,304.38,232Z" transform="translate(37.9 -92.25)"/><path class="cls-4" d="M333.69,237.7c7.46,3.6,10.06-4.51,15.26-6.36l.81,6.7c-4.74.84-5.63,5.51-8.3,8.4l-6.67-.11C331.78,243.79,333.19,240.69,333.69,237.7Z" transform="translate(37.9 -92.25)"/><path class="cls-12" d="M302.29,175.85l-7.57-.11c-1-2-1.92-4.07-2.87-6.11-.21-.83-.43-1.64-.64-2.45l-1.46.8-2.64-4.24C295.23,163.92,300.68,167.46,302.29,175.85Z" transform="translate(37.9 -92.25)"/><path class="cls-5" d="M302.26,213.22c4.9,2.07,6.85,7.17,10.61,10.41-.17,1.32-.34,2.64-.5,4l-3.4,1.17C306.43,223.71,301.58,219.66,302.26,213.22Z" transform="translate(37.9 -92.25)"/><path class="cls-12" d="M318.94,223.62c0-4,2.15-6,6-6.36C325.52,221.83,323.53,224,318.94,223.62Z" transform="translate(37.9 -92.25)"/><path class="cls-9" d="M312.37,227.59c.16-1.32.33-2.64.5-4l3.7-.27C316.9,226.5,315.27,227.68,312.37,227.59Z" transform="translate(37.9 -92.25)"/><path class="cls-12" d="M335.13,248.46c.18,1.38-.59,2-1.81,2.2C333.92,249.93,334.52,249.19,335.13,248.46Z" transform="translate(37.9 -92.25)"/><path class="cls-9" d="M432,235.93c-3,11.45-15,12.3-22.05,19-6.6.23-12.32,1.19-8.33,10.15l-.07.07c-6.28,4.83-13.62,4-20.83,3.93,8.41-7.52,16.55-15.39,25.39-22.37,2.55-2,3.65-3.6,3.69-6.46l1,0,1,0c3.61.23,7.08-.19,10.18-2.28Z" transform="translate(37.9 -92.25)"/><path class="cls-12" d="M418,312.64c-6.14-1.43-13.34,1.37-18.31-4.84-2.93-3.66-8.19-7,.43-10.25,3.48-1.3,3.44-4.71,3.5-7.82L416,298.15c2.3,3.64,6.94,5.35,8.07,9.94C420.6,307.72,420,311.14,418,312.64Z" transform="translate(37.9 -92.25)"/><path class="cls-11" d="M413.88,267.05c2.61-2.43,6.61-4.53,9-2.55,3.09,2.58,1.64,7.26-.61,10.32-3.08,4.17-1.84,11.16-8.41,13-4.72-5.34-6.13-11.79-6.19-18.69v0C409.93,269.11,412.38,269.51,413.88,267.05Z" transform="translate(37.9 -92.25)"/><path class="cls-11" d="M397.3,285.47c-.66.19-1.52.17-1.93.59-4.83,5-9.56,6.16-14.26-.13l-2.93-.29c.24-2.64,1.17-5.67-3.15-5.84l-4.46-.3c.07-2,.15-4,.22-5.94l7.8-.37c3.42.36,7.37-1,8.76,4.28,1.21,4.56,4.57,3.94,7.88,2.07l2.11,2.15C397.33,283,397.31,284.21,397.3,285.47Z" transform="translate(37.9 -92.25)"/><path class="cls-3" d="M411.86,240.26l-1,0-1,0c-12.1-1.78-3.81-11.35-6.38-16.76,3-8.62,10.27-5.75,16.36-6,.1.62.2,1.25.28,1.87,0,1.4,0,2.8,0,4.19C406.43,223.73,411.11,233,411.86,240.26Z" transform="translate(37.9 -92.25)"/><path class="cls-14" d="M397.3,285.47c0-1.26,0-2.52,0-3.78,6.35-1.79,4.74-10.13,10.3-12.58.06,6.9,1.47,13.35,6.19,18.69L416,298.15l-12.35-8.42Z" transform="translate(37.9 -92.25)"/><path class="cls-17" d="M418,312.64c2-1.5,2.61-4.92,6-4.55,5.6,1.86,4.18,6.76,4.66,10.83-1.82,3.06-4.32,5.79-4.67,9.58l-3.89,1c-4.77-3.13-4.46-8-4.25-12.77Q416.94,314.69,418,312.64Z" transform="translate(37.9 -92.25)"/><path class="cls-8" d="M420.08,223.57c0-1.39,0-2.79,0-4.19,12-.3,8.6,10.58,11.94,16.55l-10,2C424,232.82,415.55,229.09,420.08,223.57Z" transform="translate(37.9 -92.25)"/><path class="cls-14" d="M395.23,279.54c-3.31,1.87-6.67,2.49-7.88-2.07-1.39-5.24-5.34-3.92-8.75-4.28.07-1.32.13-2.64.2-4,.66,0,1.31-.06,2-.13,7.21.12,14.55.9,20.83-3.93C401.2,270.72,392.91,272.77,395.23,279.54Z" transform="translate(37.9 -92.25)"/><path class="cls-14" d="M401.66,265.09c-4-9,1.73-9.92,8.33-10.15C410.44,261,406,263,401.66,265.09Z" transform="translate(37.9 -92.25)"/><path class="cls-14" d="M413.88,267.05c-1.5,2.46-3.95,2.06-6.25,2.08C409.12,266.64,411.59,267.13,413.88,267.05Z" transform="translate(37.9 -92.25)"/><path class="cls-13" d="M382.93,109.59c4.23,5-.38,6.4-3.25,9.12-3.12,3-9.91,4.88-5.19,11.57a50.59,50.59,0,0,0-2,16.55c-11.46,2.54-14.8-.34-14.47-11.92a18,18,0,0,1,3.19-9.4c2.05-3.3-.05-5.81-2.51-7.86-2.71-2.27-4.22-1.09-4.91,2a5.75,5.75,0,0,0-1.64.27l-4.21-5.58c-.54-1.3-1.48-2.42-2.87-1.65-2.09,1.16-1.39,3.38-1.39,5.28l-1.51,2.31c-11.09,1.26-14.51,7.73-8.08,17.24,4.28,6.33,6.2,12.59,5.23,20-2.61-.23-3.87-1.74-4-4.3a16.16,16.16,0,0,0-5.46-10.7c-5.91-5.54-7-11.7-2-18.15,5.83-7.51,10-18.29,22.55-15.35,6.83,1.6,14.1,1.59,20.42,5.62C376.64,118.29,378.7,110.87,382.93,109.59Z" transform="translate(37.9 -92.25)"/><path class="cls-11" d="M353.77,119.61c.69-3,2.2-4.23,4.91-2,2.46,2,4.56,4.56,2.51,7.86a18,18,0,0,0-3.19,9.4c-.33,11.58,3,14.46,14.47,11.92,0,1.4.07,2.8.1,4.2-3.71,2.16-7.08,6.17-12,3.06-4.59-2.93-6.26-7.13-7-12.8C352.64,133.93,359.55,126.78,353.77,119.61Z" transform="translate(37.9 -92.25)"/><path class="cls-9" d="M341.48,190.43l-2.22-4.07a25.54,25.54,0,0,0-8-14.7h0c-.67-5-5.66-7.44-7.07-12,7.58.76,19.16,10.76,20.65,19.92,1.25,7.63,4.38,14.28,7.07,21.24-.37,1.07-.74,2.13-1.12,3.18,0,0,0-.36,0-.36.18,1.94.37,3.87.55,5.8-4.19-.26-2.51-5.4-5.5-6.66q-1.31-4.08-2.62-8.17A3.59,3.59,0,0,0,341.48,190.43Z" transform="translate(37.9 -92.25)"/><path class="cls-11" d="M339.3,157.45c1-7.38-.95-13.64-5.23-20-6.43-9.51-3-16,8.07-17.24-.33,1.27-.65,2.54-1,3.81-4.22.46-6.23,3.06-5.61,7,.7,4.52,3.43,7.37,8.41,7.24l.08-.11c.55,3.69,2,7.53,1.48,11-2.47,15.29,5.52,21.1,24.69,24.56,6,1.08,13.07-.9,16.79,6.25l-35.19.1C348.82,171.94,341.49,166.11,339.3,157.45Z" transform="translate(37.9 -92.25)"/><path class="cls-5" d="M341.16,124.05c.33-1.27.65-2.54,1-3.81.51-.77,1-1.54,1.52-2.31l4.26-3.63,4.21,5.58c-1.49,6.65,1.77,15.4-8.09,18.33l-.09.11Z" transform="translate(37.9 -92.25)"/><path class="cls-13" d="M347.89,325.32c-1.37-16.18,11.17-8.71,18.12-10.73-.58,2.67-1.55,5.32-1.64,8-.12,3.62-.35,7.41-3.86,8.93-4.83,2.09-3.64-3.61-5.68-5.28S350.25,325.34,347.89,325.32Z" transform="translate(37.9 -92.25)"/><path class="cls-11" d="M341.75,364.07l4,.37c-2.19,4,.54,11.52-7.92,10.92-2.66-1.49-4.54-3.51-4.59-6.77C335.38,365.81,338.44,364.71,341.75,364.07Z" transform="translate(37.9 -92.25)"/><path class="cls-14" d="M345.63,364.5c0-8.5,7.88-7.31,12.41-10.25C359.54,364.52,353,365.06,345.63,364.5Z" transform="translate(37.9 -92.25)"/><path class="cls-13" d="M333.2,368.59c.05,3.26,1.93,5.28,4.59,6.77-2.11,4.83-5.11,4.6-8.61,1.52C329.5,373.62,327.78,369.36,333.2,368.59Z" transform="translate(37.9 -92.25)"/><path class="cls-7" d="M380.76,269.09c-.65.07-1.3.11-2,.13-3.07-.45-5.77.61-8.39,2l-6.24,2.08h-1l-1-.09c2.24-4.67,8.66-5.13,10.36-10.34l4-2.15c6.11-11,22.71-15,20.93-31.45-.39-3.6,2.41-5.46,5.95-5.81,2.57,5.41-5.72,15,6.38,16.76,0,2.86-1.14,4.45-3.69,6.46C397.31,253.7,389.17,261.57,380.76,269.09Z" transform="translate(37.9 -92.25)"/><path class="cls-7" d="M391.12,219.39l2.1,0c-5.3,6.62-10.24,13.12-13.5,21.4-2.9,7.39-9.55,13.63-19.52,11.7l-4.28-6.09c-.67-2.09-1.34-4.17-2-6.26,8.8,2.68,16.46,3.44,18.58-8.78.33-1.89,4-3.39,6.32-4.69,3-1.69,6.15-3.1,6.14-7.28Z" transform="translate(37.9 -92.25)"/><path class="cls-13" d="M355.92,246.44l4.28,6.09c0,1.28.05,2.56.08,3.84-7.22-1.5-12.52-6.67-18.82-9.93,2.67-2.89,3.56-7.56,8.3-8.4A7.31,7.31,0,0,1,350,240C349.78,244.13,352,246.07,355.92,246.44Z" transform="translate(37.9 -92.25)"/><path class="cls-13" d="M376.58,260.76l-4,2.15-4-.18c.12-3.73,2.18-6.69,5.52-7.13S376.37,258.66,376.58,260.76Z" transform="translate(37.9 -92.25)"/><path class="cls-12" d="M350,240a7.31,7.31,0,0,0-.23-1.92l-.81-6.7c0-1.83.07-3.65.1-5.47.1-.84.19-1.69.29-2.53.24-1.31.47-2.62.71-3.93l34.89,0c0,4.18-3.1,5.59-6.14,7.28-2.33,1.3-6,2.8-6.32,4.69-2.12,12.22-9.78,11.46-18.58,8.78Z" transform="translate(37.9 -92.25)"/><path class="cls-5" d="M350.05,219.41c-.24,1.31-.47,2.62-.71,3.93-1.83-2.12-2.75-5.1-5.78-6.07,4.78-4.17-1.31-10.12,2.35-14.47,3,1.26,1.31,6.4,5.5,6.66l.13-.19-.18,3.73C348.71,214.69,349.58,217.09,350.05,219.41Z" transform="translate(37.9 -92.25)"/><path class="cls-12" d="M351.36,213l.18-3.73,8-.83C357.68,212.5,354.61,212.92,351.36,213Z" transform="translate(37.9 -92.25)"/><path class="cls-9" d="M384.92,202.81l-.45.84.5-.78Z" transform="translate(37.9 -92.25)"/><path class="cls-5" d="M350.86,203.66s0,.35,0,.36S350.86,203.66,350.86,203.66Z" transform="translate(37.9 -92.25)"/><path class="cls-9" d="M440.61,341.73l2.21,0c5.25,5.89,7.2,12.8,6.39,20.57-7.22.77-7.22.77-6.43,8.47H438.7q0-6.27-.05-12.53l0,.05c3.19-.93,8.08-.75,4.11-6.34-.85-1.64-2.38-1.9-4-2C439.36,347.2,440,344.47,440.61,341.73Z" transform="translate(37.9 -92.25)"/><path class="cls-8" d="M442.61,335.25l1.26-.77-.74,1.29Z" transform="translate(37.9 -92.25)"/><path class="cls-15" d="M350.18,265.3c-4.55-.52-7.2-3.35-8.43-7.48a2.1,2.1,0,0,1,2.38-2.51c4.57.71,6.54,4.22,8.09,8.07Z" transform="translate(37.9 -92.25)"/><path class="cls-12" d="M350.18,265.3l2-1.92,3.84-.41c2.41,1.33,5.08,3.32,3.37,6-2.49,3.93-5.72-.95-8.71-.27Z" transform="translate(37.9 -92.25)"/><path class="cls-14" d="M368.44,300.22c-.08,1.68-.06,3.41-2,4.19l-2,.07,0-4.06Z" transform="translate(37.9 -92.25)"/><path class="cls-14" d="M378.18,285.64l2.93.29c-3.61,5.35-6.31,11.52-12.74,14.36C368.91,293.56,373.54,289.6,378.18,285.64Z" transform="translate(37.9 -92.25)"/><path class="cls-14" d="M362.27,298.28c-1.87,0-3.55-.41-4.47-2.3,3.63-3.43,4.66-9.17,10.43-11.73C369,290.52,362.85,293.29,362.27,298.28Z" transform="translate(37.9 -92.25)"/><path class="cls-9" d="M370.41,271.25c2.62-1.42,5.32-2.48,8.39-2-.07,1.33-.13,2.65-.2,4l-7.81.37C370.66,272.79,370.53,272,370.41,271.25Z" transform="translate(37.9 -92.25)"/><path class="cls-14" d="M370.57,279.5l4.46.3C373.44,281.19,371.82,283.24,370.57,279.5Z" transform="translate(37.9 -92.25)"/><path class="cls-13" d="M438.65,358.21q0,6.27.05,12.53c-4.57,4-9.91,2-10.66-2.14C426.82,362,432.71,359.31,438.65,358.21Z" transform="translate(37.9 -92.25)"/><path class="cls-13" d="M442.72,351.92c4,5.59-.92,5.41-4.11,6.34A6.61,6.61,0,0,1,442.72,351.92Z" transform="translate(37.9 -92.25)"/><path class="cls-10" d="M343.56,217.27c3,1,3.95,3.95,5.78,6.07-.1.84-.19,1.69-.29,2.53-4.69-1.39-8.32,1.92-12,3.51-2.7-3.42-1.48-6.61-1.67-9.6C338.46,220.07,341,218.74,343.56,217.27Z" transform="translate(37.9 -92.25)"/><path class="cls-5" d="M331.3,171.66a25.54,25.54,0,0,1,8,14.7C333,183.44,331.56,177.86,331.3,171.66Z" transform="translate(37.9 -92.25)"/><path class="cls-5" d="M341.48,190.43a3.59,3.59,0,0,1,1.81,4.2C340.65,194.12,338.52,193.38,341.48,190.43Z" transform="translate(37.9 -92.25)"/><path class="cls-4" d="M294.89,179.61c7.76,11.25,14.76,22.93,19.53,35.82-8.37-2.86-10.54-11.19-14.17-17.63A38.9,38.9,0,0,1,294.89,179.61Z" transform="translate(37.9 -92.25)"/><path class="cls-9" d="M289.75,168l1.46-.8c.21.81.43,1.62.64,2.45C290.22,170.26,289.85,169.3,289.75,168Z" transform="translate(37.9 -92.25)"/><path class="cls-12" d="M420.08,223.57c-4.53,5.52,3.92,9.25,2,14.41-3.1,2.09-6.57,2.51-10.18,2.28C411.11,233,406.43,223.73,420.08,223.57Z" transform="translate(37.9 -92.25)"/><path class="cls-6" d="M347.92,114.3l-4.26,3.63c0-1.9-.7-4.12,1.39-5.28C346.44,111.88,347.38,113,347.92,114.3Z" transform="translate(37.9 -92.25)"/><path class="cls-6" d="M341.16,124.05,344,138.32c-5,.13-7.7-2.72-8.4-7.24C334.93,127.11,336.94,124.51,341.16,124.05Z" transform="translate(37.9 -92.25)"/><path class="cls-9" d="M350,240l3.91.22c.68,2.09,1.35,4.17,2,6.26C352,246.07,349.78,244.13,350,240Z" transform="translate(37.9 -92.25)"/></svg>