<svg id="Layer_1" data-name="Layer 1" xmlns="http://www.w3.org/2000/svg" viewBox="0 0 568.8 568.8"><defs><style>.cls-1{fill:#fff;}</style></defs><title>white-logo-glyph2</title><path class="cls-1" d="M326.81,217.37c0,27-19.54,43-51.2,43-8.6,0-14.85-.39-19.93-1.56V181c4.3-1.17,12.5-2.34,24.62-2.34C310,178.68,326.81,193.14,326.81,217.37Z"/><path class="cls-1" d="M284.4,1C127.88,1,1,127.88,1,284.4S127.88,567.8,284.4,567.8,567.8,440.92,567.8,284.4,440.92,1,284.4,1Zm77.19,277.34c-20.32,19.15-50.42,27.75-85.59,27.75a150.2,150.2,0,0,1-20.32-1.17v94.19h-59V139.2c18.37-3.12,44.16-5.47,80.51-5.47,36.74,0,62.93,7,80.51,21.11,16.81,13.29,28.15,35.17,28.15,61S377.23,263.49,361.59,278.34Z"/></svg>