<?xml version="1.0" standalone="yes"?>
<svg xmlns="http://www.w3.org/2000/svg" width="100" height="49">
<path style="fill:#ffffff; stroke:none;" d="M0 0L0 2L96 2L96 40L0 40L0 49L100 49L100 0L0 0z"/>
<path style="fill:#010101; stroke:none;" d="M0 2L0 13L6 13L6 9L13 11L15 2L0 2z"/>
<path style="fill:#330133; stroke:none;" d="M13 11L6 9L6 13L0 13C0.132883 19.4038 1.48447 33.4931 5.9375 38.3966C10.5605 43.4873 19.5202 39.485 21 34L22 34L21 40L34 40C34.7201 34.6527 39.6213 24.2537 36.9329 19.3256C35.1646 16.0841 30.9011 14.6892 28.2986 12.24C22.1813 6.48296 14.9917 -3.69537 13 11z"/>
<path style="fill:#010101; stroke:none;" d="M19 2L37.0965 21.0934L34 40L96 40L96 39L83 39L83 34L96 35C93.2528 30.2449 89.4982 31.6197 85 33C87.2717 26.0186 92.024 16.6657 95 29L96 29L96 2L19 2M8 11L8 28L9 28C9.7905 22.1295 14.1091 14.7844 8 11M2 15L5 30L6 30L6 15L2 15M0 19L0 40L6 40L0 19M22 34C23.5826 32.8834 25.3998 31.8151 26.7261 30.3873C33.5615 23.0285 18.9621 17.9115 19.4468 27.0031C19.5729 29.3703 21.1504 31.8261 22 34z"/>
<path style="fill:#330133; stroke:none;" d="M41 21L41 33L44 33L44 29C52.6491 27.5566 47.3534 21.1541 41 21M52 21L49 33L60 33L57 21L52 21M59 21L62 24L62 33L65 33L65 24L76 33L77 29L78 29L78 33L83 33L85 21L82 21L81 27L80 27C79.5703 23.2594 78.8137 21.6613 75 21L74 26C70.906 19.6411 65.274 21 59 21M85 33L96 33C94.7783 19.0067 87.8556 20.6567 85 33z"/>
<path style="fill:#010101; stroke:none;" d="M44 24L44 27L46 24L44 24M54.3333 26.6667L54.6667 27.3333L54.3333 26.6667M90.3333 26.6667L90.6667 27.3333L90.3333 26.6667M21 34L19 40C21.5545 38.3502 22.098 36.8804 21 34z"/>
<path style="fill:#330133; stroke:none;" d="M41 34L41 39L61 36C62.1079 41.1703 69.7576 39.4285 71 35L41 34M72 34L72 39L82 39L81 34L72 34M83 34L83 39L96 39L96 35L83 34z"/>
</svg>
